<svg width="382" height="8" viewBox="0 0 382 8" fill="none" xmlns="http://www.w3.org/2000/svg">
<path d="M159 4C159 1.79086 160.791 0 163 0H187C189.209 0 191 1.79086 191 4C191 6.20914 189.209 8 187 8H163C160.791 8 159 6.20914 159 4Z" fill="#FE3756"/>
<path d="M199 4C199 1.79086 200.791 0 203 0C205.209 0 207 1.79086 207 4C207 6.20914 205.209 8 203 8C200.791 8 199 6.20914 199 4Z" fill="#EEEEEE"/>
<path d="M215 4C215 1.79086 216.791 0 219 0C221.209 0 223 1.79086 223 4C223 6.20914 221.209 8 219 8C216.791 8 215 6.20914 215 4Z" fill="#EEEEEE"/>
</svg>
