<svg width="21" height="22" viewBox="0 0 21 22" fill="none" xmlns="http://www.w3.org/2000/svg">
<path fill-rule="evenodd" clip-rule="evenodd" d="M13.7079 15.885H7.89287C7.47887 15.885 7.14287 15.549 7.14287 15.135C7.14287 14.721 7.47887 14.385 7.89287 14.385H13.7079C14.1219 14.385 14.4579 14.721 14.4579 15.135C14.4579 15.549 14.1219 15.885 13.7079 15.885ZM18.0489 5.158C17.6859 4.838 17.2729 4.476 16.7809 4.021C16.5579 3.841 16.3139 3.635 16.0549 3.417C14.5949 2.186 12.5949 0.5 10.7719 0.5C8.96987 0.5 7.09887 2.092 5.59587 3.371C5.31787 3.607 5.05787 3.829 4.79287 4.044C4.32687 4.476 3.91387 4.839 3.54987 5.16C1.16287 7.261 0.713867 7.812 0.713867 12.713C0.713867 21.5 3.25487 21.5 10.7999 21.5C18.3439 21.5 20.8859 21.5 20.8859 12.713C20.8859 7.811 20.4369 7.26 18.0489 5.158Z" fill="#FE3756"/>
</svg>
